<?xml version="1.0" encoding="iso-8859-1"?>
<!-- Generator: Adobe Illustrator 18.1.1, SVG Export Plug-In . SVG Version: 6.00 Build 0)  -->
<svg version="1.1" id="Layer_1" xmlns="http://www.w3.org/2000/svg" xmlns:xlink="http://www.w3.org/1999/xlink" x="0px" y="0px"
	 width="1920px" height="1080px" viewBox="0 0 1920 1080" style="enable-background:new 0 0 1920 1080;" xml:space="preserve">
<path d="M1240.932,745l-27.529-41.383V329.182h15.216V323h-86.697v6.182h13.675V703.74L1128.15,745h-9.011v9h64.951
	c0.271-2.994,0.533-5.991,0.731-9h-22.287v-32.111H1185c0-2.929,0-5.947,0-9h-22.466v-32.111h19.698
	c-0.313-2.995-0.594-6.015-0.561-9h-19.137v-32.111h20.467c-0.237-3.051-0.659-6.044-1.13-9h-19.337v-32.111h17.738
	c-0.03-2.96-0.292-5.989-0.575-9h-17.163v-32.112h18.301c-0.177-2.887,0.367-5.954,0.825-9h-19.127v-32.111H1184c0-3,0-6,0-9
	h-21.466v-32.111h22.558c0.386-3,0.767-6,0.967-9h-23.525v-32.111h21.975c0.013-3,0.185-6,0.496-9h-22.47V384h27.06
	c-0.333-3-0.417-6-0.25-9h-26.81v-7.909h19.691c0.214-1.03,0.536-2.061,0.769-3.091h-20.46v-8H1194c0-1.028,0-2.017,0-3.091h-31.466
	v-5.961h43.932v5.961H1194c0,1.074,0,2.063,0,3.091h12.466v8h-23.472c-0.233,1.03-0.555,2.061-0.769,3.091h24.241V375h-17.122
	c-0.167,3-0.083,6,0.25,9h16.872v32.111h-21.462c-0.31,3-0.483,6-0.496,9h21.957v32.111h-20.407c-0.2,3-0.582,6-0.967,9h21.374
	v32.111H1184c0,3,0,6,0,9h22.466v32.111h-24.805c-0.458,3.046-1.002,6.113-0.825,9h25.63v32.112h-26.769
	c0.283,3.011,0.545,6.04,0.575,9h26.194v32.111h-24.594c0.471,2.956,0.893,5.949,1.13,9h23.464v32.111h-24.795
	c-0.033,2.985,0.248,6.005,0.561,9h24.234v32.111H1185c0,3.053,0,6.071,0,9h21.466V745h-21.645c-0.198,3.009-0.459,6.006-0.731,9
	h67.313v-9H1240.932z"/>
</svg>
