<?xml version="1.0" encoding="utf-8"?>
<!-- Generator: Adobe Illustrator 18.1.1, SVG Export Plug-In . SVG Version: 6.00 Build 0)  -->
<!DOCTYPE svg PUBLIC "-//W3C//DTD SVG 1.1//EN" "http://www.w3.org/Graphics/SVG/1.1/DTD/svg11.dtd">
<svg version="1.1" id="Layer_1" xmlns="http://www.w3.org/2000/svg" xmlns:xlink="http://www.w3.org/1999/xlink" x="0px" y="0px"
	 viewBox="0 0 43 26.2" enable-background="new 0 0 43 26.2" xml:space="preserve">
<g>
	<path d="M42.2,19.1h-10c-0.5,0-0.8,0.4-0.8,0.8c0,0.5,0.4,0.8,0.8,0.8h6.1c0.5-0.3,1.1-0.5,1.7-0.5c0.6,0,1.2,0.2,1.7,0.5h0.6
		c0.5,0,0.8-0.4,0.8-0.8C43,19.5,42.6,19.1,42.2,19.1z"/>
	<path d="M4.4,19.1H3.7V5.4h35.2v7.1h-6.7c-0.5,0-0.8,0.4-0.8,0.8s0.4,0.8,0.8,0.8h10c0.5,0,0.8-0.4,0.8-0.8s-0.4-0.8-0.8-0.8h-1.3
		V5.4h0.6c0.6,0,1-0.4,1-1V4.3c0-0.6-0.4-1-1-1h-0.6V2.1h0.6c0.6,0,1-0.4,1-1V1c0-0.6-0.4-1-1-1H1C0.4,0,0,0.4,0,1v0.1
		c0,0.6,0.4,1,1,1h0.6v1.3H1c-0.6,0-1,0.4-1,1v0.1c0,0.6,0.4,1,1,1h0.6v13.7H0.9C0.4,19.1,0,19.5,0,20c0,0.5,0.4,0.8,0.8,0.8H1
		c0.5-0.3,1.1-0.5,1.7-0.5s1.2,0.2,1.7,0.5h0.1c0.5,0,0.8-0.4,0.8-0.8C5.2,19.5,4.9,19.1,4.4,19.1z M3.7,2.1h35.2v1.3H3.7V2.1z"/>
	<path d="M2.6,21.1c-1.4,0-2.5,1.1-2.5,2.5c0,1.4,1.1,2.5,2.5,2.5c1.4,0,2.5-1.1,2.5-2.5C5.2,22.2,4,21.1,2.6,21.1z M2.6,24.3
		c-0.4,0-0.7-0.3-0.7-0.7c0-0.4,0.3-0.7,0.7-0.7c0.4,0,0.7,0.3,0.7,0.7C3.3,24,3,24.3,2.6,24.3z"/>
	<path d="M39.9,21.1c-1.4,0-2.5,1.1-2.5,2.5c0,1.4,1.1,2.5,2.5,2.5c1.4,0,2.5-1.1,2.5-2.5C42.4,22.2,41.3,21.1,39.9,21.1z
		 M39.9,24.3c-0.4,0-0.7-0.3-0.7-0.7c0-0.4,0.3-0.7,0.7-0.7c0.4,0,0.7,0.3,0.7,0.7C40.5,24,40.2,24.3,39.9,24.3z"/>
</g>
</svg>
